<svg 
          width="74" 
          height="43" fill="none" 
          xmlns="http://www.w3.org/2000/svg">
          <defs>
            <linearGradient id="e16357">
        <stop offset="0.6327005103230476%" style="stop-color:rgb(71.00000336766243,131.00000739097595,255);stop-opacity:1" />
        <stop offset="100%" style="stop-color:rgb(44.000001177191734,235.0000011920929,255);stop-opacity:1" />
        </linearGradient>
          </defs>
          <path d="M 41.430864280433646 27.371680510886815 C 48.39327232999766 20.447014339914833 55.20696235205368 13.670066276921775 62.18758054786535 6.727311751911461 C 61.62609603357481 6.69113587264358 61.12227805576063 6.630842830374214 60.61845953523697 6.630842830374214 C 57.835317387925144 6.615769546784406 55.055210361469626 6.648931094568774 52.2720682141578 6.59466727229781 C 50.766682713396264 6.564520705118195 49.63764322601878 5.822914893749605 49.17024532361615 4.369850325594491 C 48.718022663688686 2.955976328688901 48.9942158395224 1.6084248590902013 50.259832292092554 0.7402037027547802 C 50.878982763969354 0.3151371219186947 51.747003956181956 0.052861939951149496 52.508801852047824 0.04381797013417909 C 58.52730873423768 -0.010445852136784728 64.54581561642753 -0.01044584989069047 70.56735761947368 0.022715373333057915 C 72.72224407706234 0.034773999755685125 73.9726852786775 1.3009300279401925 73.98179043264244 3.423248314260089 C 74.0060708432156 9.353078013129046 74.0060708432156 15.27989183632469 73.98179043264244 21.209721535193648 C 73.9726852786775 23.398362348820434 72.54621372463342 24.86650007815322 70.57950041845932 24.827309542841203 C 68.67045310605211 24.788119007529186 67.35324005005215 23.35615733939792 67.33502974212229 21.22178043788587 C 67.31074933154913 18.077493435905513 67.32895834262946 14.933206433925157 67.32895834262946 11.363852887046226 C 66.64910682849074 11.999945413432581 66.25758521082521 12.346630815832114 65.88730893262489 12.71441893856795 C 58.80349894325957 19.747612933769403 51.725760932277176 26.78382337964429 44.63891582205556 33.814002649172686 C 42.362627279943055 36.07499515395241 40.82082119724113 36.08403832472135 38.56881304308889 33.85319235792202 C 34.844804849259205 30.16325265912153 31.129902596888524 26.46426878330187 27.40589440305884 22.774329084501378 C 27.056863500504384 22.427643574289323 26.68355014769364 22.10507457571142 26.204012015130246 21.661920036149592 C 21.994395772650265 25.870380763212918 17.86976204581142 30.000460060277135 13.73905720892482 34.12752491916836 C 11.207824303784507 36.65380724567557 8.72515275345483 39.23435722179836 6.099833417329767 41.66115590109528 C 5.353210763939064 42.348497613923314 4.2181013966553165 42.803709672583295 3.1983241616278715 42.969515793194226 C 1.9539531208842087 43.168483141521094 0.9857716740916884 42.369599328009386 0.4030418203359152 41.26924961359992 C -0.18272308191489084 40.16287059159437 -0.13416226981373436 39.02935695415586 0.5760397292753116 37.9832710799861 C 0.8825799167186781 37.53107257903016 1.2862418007256216 37.13615300336207 1.6807984668862026 36.74726230403996 C 8.864765128948866 29.602525758935982 16.054800006608733 22.460805089505325 23.24483691038399 15.325112721420515 C 25.512020234650134 13.073164249909926 27.078107863092548 13.067134079813655 29.308870605418296 15.288936013343855 C 33.339418769607555 19.304458609832622 37.36389553430399 23.32299564449438 41.430864280433646 27.37770881223267 L 41.430864280433646 27.371680510886815 Z" fill="url(#e16357)"/>
        </svg>